<svg xmlns="http://www.w3.org/2000/svg" xmlns:xlink="http://www.w3.org/1999/xlink" xmlns:lucid="lucid" width="444.53" height="300.79"><g transform="translate(-167.2394587006 -224.03889635535683)" lucid:page-tab-id="_oIdHftM43a3"><path d="M0 0h1000v1000H0z" fill="#fff"/><path d="M195.16 426a6 6 0 0 1 6-6h321.68a6 6 0 0 1 6 6v91.33a6 6 0 0 1-6 6H201.16a6 6 0 0 1-6-6z" stroke="#000" stroke-width="3" fill="#fff"/><use xlink:href="#a" transform="matrix(1,0,0,1,200.1566784601812,424.9999999999613) translate(162 16.626736111111114)"/><use xlink:href="#a" transform="matrix(1,0,0,1,200.1566784601812,424.9999999999613) translate(162 34.40451388888889)"/><use xlink:href="#a" transform="matrix(1,0,0,1,200.1566784601812,424.9999999999613) translate(162 52.18229166666667)"/><use xlink:href="#a" transform="matrix(1,0,0,1,200.1566784601812,424.9999999999613) translate(162 69.96006944444444)"/><use xlink:href="#b" transform="matrix(1,0,0,1,200.1566784601812,424.9999999999613) translate(58.78385416666666 87.73784722222223)"/><use xlink:href="#c" transform="matrix(1,0,0,1,200.1566784601812,424.9999999999613) translate(94.34809027777777 87.73784722222223)"/><use xlink:href="#d" transform="matrix(1,0,0,1,200.1566784601812,424.9999999999613) translate(137.78559027777777 87.73784722222223)"/><use xlink:href="#e" transform="matrix(1,0,0,1,200.1566784601812,424.9999999999613) translate(174.33072916666666 87.73784722222223)"/><use xlink:href="#f" transform="matrix(1,0,0,1,200.1566784601812,424.9999999999613) translate(223.71440972222223 87.73784722222223)"/><path d="M309.63 379.02c-8.75 0-15.84-14.2-15.84-31.7s7.08-31.67 15.83-31.67h126.74c8.75 0 15.84 14.18 15.84 31.68s-7.08 31.7-15.83 31.7z" fill="#fff"/><path d="M301.95 375l-1.35-1.62-2.14-3.57-.52-1.3m-1.82-4.76l-1.65-7.2-.02-.28m-.38-5.1l-.28-3.83.28-3.82m.4-5.1l.05-.7 1.6-6.76m1.8-4.78l.63-1.5 2.14-3.5 1.26-1.48m3.97-3.15l1.2-.5 1.28-.3 1.23-.08h4.75m6.34 0h9.5m6.34 0h9.5m6.34 0h9.5m6.35 0h9.5m6.34 0h9.5m6.33 0h9.5m6.35 0h9.5m6.34 0h4.75l1.28.1 1.3.3 1.12.48m3.98 3.15l1.35 1.6 2.14 3.57.52 1.3m1.82 4.78l1.65 7.18.03.3m.37 5.1l.28 3.83-.28 3.83m-.4 5.1l-.05.7-1.6 6.77m-1.8 4.77l-.63 1.5-2.13 3.5-1.26 1.5m-3.97 3.14l-1.2.5-1.28.3-1.23.08h-4.75m-6.34 0h-9.5m-6.34 0h-9.5m-6.34 0h-9.5m-6.35 0h-9.5m-6.34 0h-9.5m-6.33 0h-9.5m-6.35 0h-9.5m-6.34 0h-4.75l-1.28-.1-1.3-.3-1.12-.48" stroke="#000" stroke-width="3" fill="none"/><path d="M436.37 379.02l-1.27-.1-1.3-.3-1.13-.48M428.7 375l-1.35-1.62-2.14-3.57-.52-1.3m-1.82-4.76l-1.65-7.2v-.28m-.4-5.1l-.27-3.83.3-3.82m.4-5.1l.04-.7 1.6-6.76m1.82-4.78l.6-1.5 2.14-3.5 1.26-1.48m3.97-3.15l1.2-.5 1.3-.3 1.2-.08" stroke="#000" stroke-width="3" fill="none"/><path d="M489.47 353.86a6 6 0 0 1-6 6H458.2a6 6 0 0 1-6-6V340.8a6 6 0 0 1 6-6h25.27a6 6 0 0 1 6 6z" stroke="#000" stroke-opacity="0" stroke-width="3" fill-opacity="0"/><path d="M460.38 347.33h-4.67" stroke="#000" stroke-width="7" fill="none"/><path d="M478.15 347.33l-14.27 4.64v-9.27z" stroke="#000" stroke-width="7"/><path d="M455.8 350.8h-3.6v-6.94h3.6z" stroke="#000" stroke-width=".05"/><path d="M425.2 342.52a6 6 0 0 1 6-6h9.5a6 6 0 0 1 6 6v9.5a6 6 0 0 1-6 6h-9.5a6 6 0 0 1-6-6z" stroke="#000" stroke-width="3" fill="#f6bc26"/><use xlink:href="#g" transform="matrix(1,0,0,1,430.21411345540696,341.5252916584803) translate(-0.4192708333333339 13.689236111111112)"/><path d="M415.93 347.1c0 15.04-24.15 27.22-53.93 27.22s-53.93-12.18-53.93-27.22c0-15.03 24.15-27.22 53.93-27.22s53.93 12.2 53.93 27.22z" stroke="#000" stroke-opacity="0" stroke-width="3" fill="#f6bc26"/><use xlink:href="#h" transform="matrix(1,0,0,1,313.0719907616935,324.87936800631684) translate(11.342664930555557 28.36154513888889)"/><path d="M256.53 340.75a6 6 0 0 1 6-6h25.26a6 6 0 0 1 6 6v13.05a6 6 0 0 1-6 6h-25.27a6 6 0 0 1-6-6z" stroke="#000" stroke-opacity="0" stroke-width="3" fill-opacity="0"/><path d="M260.03 347.27H268a.1.1 0 0 0 .07-.08.1.1 0 0 1 .1-.1h10.8M260.12 347.27h-3.6" stroke="#000" stroke-width="7" fill="none"/><path d="M296.75 347.1l-14.27 4.64v-9.27z" stroke="#000" stroke-width="7"/><path d="M242.43 332.2l-1.97 2.2-12.32-11.1h4.4zm-29.63-26.67h-4.4l-16.04-14.43 1.98-2.2z" stroke="#0062cf" stroke-width=".05" fill="#0062cf"/><path d="M194.37 288.94l-1.98 2.2-.16-.15V287z" fill="#0062cf"/><path stroke="#0062cf" stroke-width=".05" fill="#0062cf"/><path d="M253.16 343.86l-13.7-6.1 6.2-6.9z" fill="#0062cf"/><path d="M256.7 347.05l-19.7-8.77 8.92-9.9zm-14.8-9.8l7.7 3.42-4.2-7.3z" stroke="#0062cf" stroke-width=".05" fill="#0062cf"/><use xlink:href="#i" transform="matrix(1,0,0,1,167.78098240344872,305.5344180930064) translate(0 13.689236111111112)"/><path d="M193.74 347.1h42.4" stroke="#0062cf" stroke-width="3" fill="none"/><path d="M193.77 348.58h-1.53v-2.95h1.53z" stroke="#0062cf" stroke-width=".05" fill="#0062cf"/><path d="M251.9 347.1l-14.25 4.64v-9.27z" stroke="#0062cf" stroke-width="3" fill="#0062cf"/><path d="M194.34 405.3l-1.98-2.2 16.48-14.82h4.4zm48.1-43.3l-9.45 8.5h-4.42l11.88-10.7z" stroke="#0062cf" stroke-width=".05" fill="#0062cf"/><path d="M194.37 405.28l-1.15 1.03-1.97-2.2 1.14-1z" stroke="#0062cf" stroke-width=".05" fill="#0062cf"/><path d="M245.66 363.35l-6.2-6.9 13.7-6.1z" fill="#0062cf"/><path d="M245.92 365.84l-8.92-9.9 19.7-8.78zm-4-8.86l3.48 3.87 4.2-7.3z" stroke="#0062cf" stroke-width=".05" fill="#0062cf"/><use xlink:href="#j" transform="matrix(1,0,0,1,167.2394587006,370.49967325698526) translate(0 13.689236111111112)"/><path d="M192.24 282.48a6 6 0 0 1 6-6h25.25a6 6 0 0 1 6 6v13.05a6 6 0 0 1-6 6h-25.26a6 6 0 0 1-6-6zM192.24 340.58a6 6 0 0 1 6-6h25.25a6 6 0 0 1 6 6v13.05a6 6 0 0 1-6 6h-25.26a6 6 0 0 1-6-6zM192.24 311.53a6 6 0 0 1 6-6h25.25a6 6 0 0 1 6 6v13.05a6 6 0 0 1-6 6h-25.26a6 6 0 0 1-6-6z" stroke="#000" stroke-opacity="0" stroke-width="3" fill-opacity="0"/><use xlink:href="#k" transform="matrix(1,0,0,1,197.23529551474297,310.53000284083146) translate(14 17.11154513888889)"/><path d="M537.94 392.57l-.5-.44h.9zm-15.82-18.22h-4.4l-27.88-25.08 1.98-2.2z" stroke="#009952" stroke-width=".05" fill="#009952"/><path d="M550.64 402.02l-13.7-6.1 3.4-3.8h4.6z" fill="#009952"/><path d="M554.2 405.2l-19.72-8.76 3.88-4.3h3.97l-2.94 3.26 7.7 3.43-3.87-6.7h3.4zM491.84 347.1l-1.97 2.2-1.14-1.04 1.97-2.2z" stroke="#009952" stroke-width=".05" fill="#009952"/><use xlink:href="#l" transform="matrix(1,0,0,1,447.7960880618425,374.3543994301691) translate(0 13.689236111111112)"/><use xlink:href="#m" transform="matrix(1,0,0,1,447.7960880618425,374.3543994301691) translate(147.61219618055554 13.689236111111112)"/><path d="M533.63 347.17H491.2" stroke="#009952" stroke-width="3" fill="none"/><path d="M549.4 347.17l-14.27 4.63v-9.27z" stroke="#009952" stroke-width="3" fill="#009952"/><path d="M491.25 347.17h-1.54" stroke="#009952" stroke-width="3" fill="none"/><path d="M491.82 347.26l-1.98-2.2 16.4-14.75h4.4zm48.1-43.3l-9.53 8.57h-4.42l11.96-10.77z" stroke="#009952" stroke-width=".05" fill="#009952"/><path d="M543.14 305.3l-6.2-6.9 13.7-6.1z" fill="#009952"/><path d="M543.4 307.8l-8.92-9.9 19.7-8.78zm-4-8.87l3.48 3.88 4.2-7.3zM491.84 347.23l-1.14 1.03-1.97-2.2 1.14-1.02z" stroke="#009952" stroke-width=".05" fill="#009952"/><use xlink:href="#n" transform="matrix(1,0,0,1,477.3078703702452,312.52972371003386) translate(0 13.689236111111112)"/><path d="M554.25 411.8a6 6 0 0 1-6 6H523a6 6 0 0 1-6-6v-13.06a6 6 0 0 1 6-6h25.25a6 6 0 0 1 6 6zM554.25 353.7a6 6 0 0 1-6 6H523a6 6 0 0 1-6-6v-13.06a6 6 0 0 1 6-6h25.25a6 6 0 0 1 6 6zM554.25 295.6a6 6 0 0 1-6 6H523a6 6 0 0 1-6-6v-13.06a6 6 0 0 1 6-6h25.25a6 6 0 0 1 6 6z" stroke="#000" stroke-opacity="0" stroke-width="3" fill-opacity="0"/><path d="M248.85 281.26l.06.17.1.17.08.18.1.2.12.2.14.2.17.23.2.25.22.25.27.28.3.3.37.32.44.36.55.4.66.44.82.5 1.02.55 1.3.64 1.7.74 2.27.9 3.18 1.08 4.7 1.38 7.77 1.9 18.48 3.65 40.6 7.53 7.9 1.94 4.82 1.4 3.3 1.14 2.4.93 1.8.8 1.42.7 1.13.62.92.56.77.5.63.48.54.44.47.4.4.4.36.37.3.35.28.34.24.33.2.3.2.32.16.3.15.3.13.3.1.28.1.25-2.8.95-.06-.2-.07-.16-.08-.18-.08-.18-.1-.2-.13-.2-.14-.2-.16-.22-.2-.24-.22-.26-.26-.27-.3-.3-.4-.34-.43-.36-.54-.4-.67-.44-.8-.5-1.03-.55-1.3-.63-1.7-.75-2.26-.9-3.18-1.07-4.7-1.38-7.75-1.9-40.53-7.53-18.56-3.66-7.88-1.94-4.83-1.4-3.3-1.14-2.4-.93-1.8-.8-1.43-.7-1.13-.63-.92-.56-.76-.5-.64-.48-.55-.44-.47-.4-.4-.4-.35-.37-.3-.36-.3-.34-.22-.33-.22-.32-.17-.3-.17-.3-.15-.3-.1-.3-.13-.3-.1-.33 2.8-.92z" stroke="#000" stroke-width=".05"/><path d="M247.14 279.98l1.48-.06.03 1.57-2.95.05-.03-1.63z"/><path stroke="#000" stroke-width=".05"/><path d="M363.48 319.95l-1.48-.07-1.48.06v-.98h2.96z"/><path stroke="#000" stroke-width=".05"/><path d="M362 281.48v36.9" stroke="#000" stroke-width="3" stroke-linejoin="round" fill="none"/><path d="M362 279.98l1.48-.06v1.6h-2.96v-1.6zM363.48 319.95l-1.48-.07-1.48.06v-1.6h2.96z" stroke="#000" stroke-width=".05"/><path d="M476.64 281.46l-.02.08-.08.22-.1.23-.1.22-.1.24-.14.25-.16.26-.18.27-.2.27-.23.3-.26.3-.3.32-.37.34-.42.37-.5.4-.6.43-.7.48-.86.53-1.08.6-1.35.66-1.77.78-2.33.92-3.24 1.1-4.76 1.4-7.83 1.92-18.52 3.66-40.57 7.52-7.82 1.92-4.77 1.4-3.24 1.1-2.34.92-1.75.77-1.36.67-1.06.6-.87.52-.7.48-.6.43-.5.4-.4.37-.37.34-.3.33-.28.3-.23.3-.2.26-.2.27-.14.25-.13.25-.12.24-.1.23-.08.23-.08.23-.02.07" stroke="#000" stroke-width="3" stroke-linejoin="round" fill="none"/><path d="M476.86 279.98l1.47-.06-.03 1.63-2.95-.06.03-1.58zM363.48 318.96v1l-1.48-.08-1.48.06v-.98z" stroke="#000" stroke-width=".05"/><path d="M205.1 435.67a6 6 0 0 1 6-6h40.34a6 6 0 0 1 6 6v44a6 6 0 0 1-6 6H211.1a6 6 0 0 1-6-6z" stroke="#000" stroke-width="3" fill="#c3f7c8"/><path d="M205.1 463.67a6 6 0 0 1 6-6h40.34a6 6 0 0 1 6 6v16a6 6 0 0 1-6 6H211.1a6 6 0 0 1-6-6z" stroke="#000" stroke-width="3" fill="#c3f7c8"/><use xlink:href="#o" transform="matrix(1,0,0,1,210.1078037807746,462.6666666667054) translate(0 13.689236111111112)"/><use xlink:href="#p" transform="matrix(1,0,0,1,210.1078037807746,462.6666666667054) translate(14.82638888888889 13.689236111111112)"/><path d="M205.1 435.67a6 6 0 0 1 6-6h40.34a6 6 0 0 1 6 6v16a6 6 0 0 1-6 6H211.1a6 6 0 0 1-6-6z" stroke="#000" stroke-width="3" fill="#c3f7c8"/><use xlink:href="#q" transform="matrix(1,0,0,1,210.1078037807746,434.66666666670534) translate(0 13.689236111111112)"/><path d="M257.44 435.67a6 6 0 0 1 6-6h40.32a6 6 0 0 1 6 6v44a6 6 0 0 1-6 6h-40.32a6 6 0 0 1-6-6z" stroke="#000" stroke-width="3" fill="#c3f7c8"/><path d="M257.44 463.67a6 6 0 0 1 6-6h40.32a6 6 0 0 1 6 6v16a6 6 0 0 1-6 6h-40.32a6 6 0 0 1-6-6z" stroke="#000" stroke-width="3" fill="#c3f7c8"/><use xlink:href="#o" transform="matrix(1,0,0,1,262.4358859637697,462.66666666670545) translate(0 13.689236111111112)"/><use xlink:href="#r" transform="matrix(1,0,0,1,262.4358859637697,462.66666666670545) translate(14.82638888888889 13.689236111111112)"/><path d="M257.44 435.67a6 6 0 0 1 6-6h40.32a6 6 0 0 1 6 6v16a6 6 0 0 1-6 6h-40.32a6 6 0 0 1-6-6z" stroke="#000" stroke-width="3" fill="#c3f7c8"/><use xlink:href="#q" transform="matrix(1,0,0,1,262.4358859637697,434.6666666667054) translate(0 13.689236111111112)"/><path d="M309.76 435.67a6 6 0 0 1 6-6h40.33a6 6 0 0 1 6 6v44a6 6 0 0 1-6 6h-40.34a6 6 0 0 1-6-6z" stroke="#000" stroke-width="3" fill="#c3f7c8"/><path d="M309.76 463.67a6 6 0 0 1 6-6h40.33a6 6 0 0 1 6 6v16a6 6 0 0 1-6 6h-40.34a6 6 0 0 1-6-6z" stroke="#000" stroke-width="3" fill="#c3f7c8"/><use xlink:href="#s" transform="matrix(1,0,0,1,314.7639681467648,462.6666666667054) translate(0 13.689236111111112)"/><use xlink:href="#t" transform="matrix(1,0,0,1,314.7639681467648,462.6666666667054) translate(14.82638888888889 13.689236111111112)"/><path d="M309.76 435.67a6 6 0 0 1 6-6h40.33a6 6 0 0 1 6 6v16a6 6 0 0 1-6 6h-40.34a6 6 0 0 1-6-6z" stroke="#000" stroke-width="3" fill="#c3f7c8"/><use xlink:href="#q" transform="matrix(1,0,0,1,314.7639681467648,434.66666666670534) translate(0 13.689236111111112)"/><path d="M362.1 435.67a6 6 0 0 1 6-6h40.32a6 6 0 0 1 6 6v44a6 6 0 0 1-6 6H368.1a6 6 0 0 1-6-6z" stroke="#000" stroke-width="3" fill="#fff7a1"/><path d="M362.1 463.67a6 6 0 0 1 6-6h40.32a6 6 0 0 1 6 6v16a6 6 0 0 1-6 6H368.1a6 6 0 0 1-6-6z" stroke="#000" stroke-width="3" fill="#fff7a1"/><use xlink:href="#o" transform="matrix(1,0,0,1,367.0920503297599,462.6666666667054) translate(0 13.689236111111112)"/><use xlink:href="#u" transform="matrix(1,0,0,1,367.0920503297599,462.6666666667054) translate(14.82638888888889 13.689236111111112)"/><path d="M362.1 435.67a6 6 0 0 1 6-6h40.32a6 6 0 0 1 6 6v16a6 6 0 0 1-6 6H368.1a6 6 0 0 1-6-6z" stroke="#000" stroke-width="3" fill="#fff7a1"/><use xlink:href="#v" transform="matrix(1,0,0,1,367.0920503297599,434.66666666670534) translate(0 13.689236111111112)"/><path d="M414.42 435.67a6 6 0 0 1 6-6h40.33a6 6 0 0 1 6 6v44a6 6 0 0 1-6 6h-40.33a6 6 0 0 1-6-6z" stroke="#000" stroke-width="3" fill="#fff7a1"/><path d="M414.42 463.67a6 6 0 0 1 6-6h40.33a6 6 0 0 1 6 6v16a6 6 0 0 1-6 6h-40.33a6 6 0 0 1-6-6z" stroke="#000" stroke-width="3" fill="#fff7a1"/><use xlink:href="#o" transform="matrix(1,0,0,1,419.420132512755,462.66666666670545) translate(0 13.689236111111112)"/><use xlink:href="#t" transform="matrix(1,0,0,1,419.420132512755,462.66666666670545) translate(14.82638888888889 13.689236111111112)"/><path d="M414.42 435.67a6 6 0 0 1 6-6h40.33a6 6 0 0 1 6 6v16a6 6 0 0 1-6 6h-40.33a6 6 0 0 1-6-6z" stroke="#000" stroke-width="3" fill="#fff7a1"/><use xlink:href="#v" transform="matrix(1,0,0,1,419.420132512755,434.6666666667054) translate(0 13.689236111111112)"/><path d="M466.75 435.67a6 6 0 0 1 6-6h40.33a6 6 0 0 1 6 6v44a6 6 0 0 1-6 6h-40.33a6 6 0 0 1-6-6z" stroke="#000" stroke-width="3" fill="#cfe4ff"/><path d="M466.75 463.67a6 6 0 0 1 6-6h40.33a6 6 0 0 1 6 6v16a6 6 0 0 1-6 6h-40.33a6 6 0 0 1-6-6z" stroke="#000" stroke-width="3" fill="#cfe4ff"/><g><use xlink:href="#s" transform="matrix(1,0,0,1,471.7482146957501,462.6666666667054) translate(0 13.689236111111112)"/><use xlink:href="#u" transform="matrix(1,0,0,1,471.7482146957501,462.6666666667054) translate(14.82638888888889 13.689236111111112)"/></g><path d="M466.75 435.67a6 6 0 0 1 6-6h40.33a6 6 0 0 1 6 6v16a6 6 0 0 1-6 6h-40.33a6 6 0 0 1-6-6z" stroke="#000" stroke-width="3" fill="#cfe4ff"/><g><use xlink:href="#w" transform="matrix(1,0,0,1,471.7482146957501,434.66666666670534) translate(0 13.689236111111112)"/></g><path d="M435.96 397.88v-36.86" stroke="#000" stroke-width="3" fill="none"/><path d="M435.96 413.65l-4.63-14.27h9.27z" stroke="#000" stroke-width="3"/><path d="M437.44 361.06h-2.95v-1.54h2.94z" stroke="#000" stroke-width=".05"/><path d="M362.1 397.88v-1.42a.05.05 0 0 0-.05-.05.05.05 0 0 1-.05-.03v-20.55" stroke="#000" stroke-width="3" fill="none"/><path d="M362.1 413.65l-4.64-14.27h9.27z" stroke="#000" stroke-width="3"/><path d="M362 374.32l1.48-.06v1.6h-2.96v-1.6z" stroke="#000" stroke-width=".05"/><path d="M301.07 252.76c0 15.04-24.14 27.22-53.93 27.22-29.78 0-53.92-12.18-53.92-27.22 0-15.03 24.14-27.22 53.92-27.22 29.8 0 53.93 12.2 53.93 27.22z" stroke="#000" stroke-opacity="0" stroke-width="3" fill="#d82233"/><g><use xlink:href="#x" transform="matrix(1,0,0,1,198.21597228512456,230.53889635535683) translate(3.3185763888888857 28.36154513888889)"/></g><path d="M415.93 252.76c0 15.04-24.15 27.22-53.93 27.22s-53.93-12.18-53.93-27.22c0-15.03 24.15-27.22 53.93-27.22s53.93 12.2 53.93 27.22z" stroke="#000" stroke-opacity="0" stroke-width="3" fill="#0062cf"/><g><use xlink:href="#y" transform="matrix(1,0,0,1,313.0719907616935,230.53889635535683) translate(-4.7109375 28.50043402777778)"/></g><path d="M530.78 252.76c0 15.04-24.14 27.22-53.92 27.22-29.8 0-53.93-12.18-53.93-27.22 0-15.03 24.14-27.22 53.93-27.22 29.78 0 53.92 12.2 53.92 27.22z" stroke="#000" stroke-opacity="0" stroke-width="3" fill="#009952"/><g><use xlink:href="#z" transform="matrix(1,0,0,1,427.9280092382624,230.53889635535683) translate(12.563368055555557 28.36154513888889)"/></g><defs><path d="M784-654c-5-137-89-228-221-230-142 0-204 100-222 230h443zM47-534c0-349 192-585 516-585 298 0 464 175 508 437 7 50 10 122 9 216H334c6 167 84 266 245 271 100 0 162-49 196-125h291c-7 65-41 130-101 197C872-17 741 36 573 36 434 36 312-9 206-98S47-333 47-534" id="A"/><path d="M128-298h303V0H128v-298" id="B"/><path d="M601-234c159-8 238-126 238-316 0-184-76-313-241-317-163-5-237 143-237 326 0 169 82 314 240 307zm-71-882c166 3 242 68 311 183v-157h277V-56c2 372-168 495-539 502-258 5-468-97-487-327h310c22 90 78 111 194 111 196 0 242-105 240-325v-70C775-55 684 3 527 5 233 6 66-231 66-542c0-304 161-581 464-574" id="C"/><g id="b"><use transform="matrix(0.008680555555555556,0,0,0.008680555555555556,0,0)" xlink:href="#A"/><use transform="matrix(0.008680555555555556,0,0,0.008680555555555556,9.887152777777779,0)" xlink:href="#B"/><use transform="matrix(0.008680555555555556,0,0,0.008680555555555556,14.82638888888889,0)" xlink:href="#C"/><use transform="matrix(0.008680555555555556,0,0,0.008680555555555556,25.68576388888889,0)" xlink:href="#B"/></g><path d="M424 0H139v-1474h285V0" id="D"/><path d="M622-201c183 0 261-144 259-342 1-198-76-341-259-341S360-741 362-543c-2 198 77 342 260 342zm420 69C948-20 810 38 623 38S298-20 204-132C22-348 22-734 204-952c95-113 232-173 419-173s324 60 419 173c182 218 182 604 0 820" id="E"/><path d="M128-1488h502v208H398V185h232v209H128v-1882" id="F"/><path d="M47 185h232v-1469H47v-204h502V394H47V185" id="G"/><g id="c"><use transform="matrix(0.008680555555555556,0,0,0.008680555555555556,0,0)" xlink:href="#D"/><use transform="matrix(0.008680555555555556,0,0,0.008680555555555556,4.939236111111112,0)" xlink:href="#E"/><use transform="matrix(0.008680555555555556,0,0,0.008680555555555556,15.79861111111111,0)" xlink:href="#C"/><use transform="matrix(0.008680555555555556,0,0,0.008680555555555556,26.65798611111111,0)" xlink:href="#F"/><use transform="matrix(0.008680555555555556,0,0,0.008680555555555556,32.578125,0)" xlink:href="#G"/></g><path d="M484-173c144 0 256-81 250-251v-106c-112 84-389 25-389 219 0 91 57 138 139 138zM400 34C204 35 54-88 59-290c4-238 161-332 405-361 113-13 271-9 271-118 0-101-76-116-183-118-118 0-167 50-183 150H94c20-262 177-379 468-379 119 0 225 24 318 71s139 137 139 268c1 211-2 417 2 626 4 69 15 86 59 109V0H770c-17-43-21-75-26-128C666-45 554 36 400 34" id="H"/><path d="M737-1116c238 0 384 122 384 382V0H829v-663c3-142-52-214-183-216-156-2-227 117-227 289V0H135v-1088h275v159c75-120 156-187 327-187" id="I"/><path d="M535-1116c144 1 243 71 301 164v-520h289V0H848v-151C772-34 692 31 515 34 245 35 63-226 63-517c0-336 161-596 472-599zm62 910c170 2 248-148 247-323 0-195-72-331-245-338-174-7-241 155-242 329 0 183 66 331 240 332" id="J"/><g id="d"><use transform="matrix(0.008680555555555556,0,0,0.008680555555555556,0,0)" xlink:href="#H"/><use transform="matrix(0.008680555555555556,0,0,0.008680555555555556,9.887152777777779,0)" xlink:href="#I"/><use transform="matrix(0.008680555555555556,0,0,0.008680555555555556,20.74652777777778,0)" xlink:href="#J"/></g><path d="M576-201c18 0 39-1 56-2V10l-135 5c-210 0-324-31-324-221v-671H21v-203h152v-304h282v304h177v203H455v576c4 103 10 94 121 100" id="K"/><path d="M419-948c68-109 163-168 315-170 200-3 338 103 374 268 7 43 10 113 10 210V0H827v-663c-1-132-47-219-178-218-162 1-231 119-230 291V0H135v-1469h284v521" id="L"/><path d="M402-900c88-148 154-220 361-214v292c-235-26-346 58-346 301V0H130v-1090h272v190" id="M"/><g id="e"><use transform="matrix(0.008680555555555556,0,0,0.008680555555555556,0,0)" xlink:href="#E"/><use transform="matrix(0.008680555555555556,0,0,0.008680555555555556,10.859375,0)" xlink:href="#K"/><use transform="matrix(0.008680555555555556,0,0,0.008680555555555556,16.77951388888889,0)" xlink:href="#L"/><use transform="matrix(0.008680555555555556,0,0,0.008680555555555556,27.63888888888889,0)" xlink:href="#A"/><use transform="matrix(0.008680555555555556,0,0,0.008680555555555556,37.52604166666667,0)" xlink:href="#M"/></g><path d="M555-903c-99-1-172 24-172 97 0 33 14 56 42 71s127 42 297 79c190 46 339 124 339 326 0 108-41 196-121 264S736 37 568 37C397 37 270 0 188-72S66-236 66-348h289c15 135 82 165 235 165 93 0 179-20 183-100 0-32-13-56-40-73s-126-45-297-86c-123-31-210-69-261-115-51-45-76-111-76-196 5-223 198-375 452-368 276 7 460 99 480 363H746c-11-104-75-143-191-145" id="N"/><g id="f"><use transform="matrix(0.008680555555555556,0,0,0.008680555555555556,0,0)" xlink:href="#N"/><use transform="matrix(0.008680555555555556,0,0,0.008680555555555556,9.887152777777779,0)" xlink:href="#K"/><use transform="matrix(0.008680555555555556,0,0,0.008680555555555556,15.807291666666668,0)" xlink:href="#H"/><use transform="matrix(0.008680555555555556,0,0,0.008680555555555556,25.694444444444446,0)" xlink:href="#K"/><use transform="matrix(0.008680555555555556,0,0,0.008680555555555556,31.614583333333336,0)" xlink:href="#A"/></g><path d="M988-125C884-24 771 33 587 36 438 36 323-10 237-96 97-235 70-451 177-617c45-69 143-146 247-207-71-82-130-169-134-303-4-217 169-342 388-342 198 0 366 135 362 329-4 203-104 274-242 361l209 258c44-63 74-142 76-242h253c-12 173-70 322-168 441L1436 0h-346zM673-1256c-105 0-158 118-93 203 12 19 38 54 78 103 73-51 136-96 136-188 0-66-46-118-121-118zM430-517c-96 138 18 314 177 314 96 0 186-57 234-105L571-642c-71 47-118 89-141 125" id="O"/><use transform="matrix(0.008680555555555556,0,0,0.008680555555555556,0,0)" xlink:href="#O" id="g"/><path d="M559-557h374l-184-580zm19-917h348L1448 0h-334l-95-303H476L374 0H52" id="P"/><path d="M1016-928c65-116 171-186 335-186 233 0 342 157 341 427l-2 687h-292v-694c1-112-54-179-160-178-123-3-186 91-186 223V0H765v-649c3-144-35-220-161-220-137 0-187 66-187 213V0H128v-1088h277v159c72-120 146-180 315-185 159-3 252 71 296 186" id="Q"/><path d="M426-1220H137v-263h289v263zm-289 130h289V0H137v-1090" id="R"/><path d="M71-523c-5-352 179-593 515-593 296 0 466 123 490 417H784c-12-100-75-176-190-176-165 0-225 152-225 345 0 185 59 331 220 329 134 3 178-79 193-194h291c-7 87-38 169-94 246C890-24 757 38 582 38 236 46 73-191 71-523" id="S"/><g id="h"><use transform="matrix(0.010850694444444444,0,0,0.010850694444444444,0,0)" xlink:href="#P"/><use transform="matrix(0.010850694444444444,0,0,0.010850694444444444,16.048177083333332,0)" xlink:href="#K"/><use transform="matrix(0.010850694444444444,0,0,0.010850694444444444,23.448350694444443,0)" xlink:href="#E"/><use transform="matrix(0.010850694444444444,0,0,0.010850694444444444,37.02256944444444,0)" xlink:href="#Q"/><use transform="matrix(0.010850694444444444,0,0,0.010850694444444444,56.78168402777778,0)" xlink:href="#R"/><use transform="matrix(0.010850694444444444,0,0,0.010850694444444444,62.95572916666666,0)" xlink:href="#S"/></g><path d="M1019-1474h320L836 0H545L47-1474h329L696-355" id="T"/><path d="M85-722c0-453 278-790 718-790 351 0 612 203 647 498h-303c-33-152-156-242-340-244-119 0-217 44-293 134S400-899 400-719c0 181 41 310 124 385s177 113 282 113c211 3 349-140 376-324H841v-246h614V0h-204l-31-184C1100-38 993 39 760 39 350 39 85-289 85-722" id="U"/><g id="i"><use transform="matrix(0.008680555555555556,0,0,0.008680555555555556,0,0)" xlink:href="#T"/><use transform="matrix(0.008680555555555556,0,0,0.008680555555555556,10.546875,0)" xlink:href="#E"/><use transform="matrix(0.008680555555555556,0,0,0.008680555555555556,21.40625,0)" xlink:href="#K"/><use transform="matrix(0.008680555555555556,0,0,0.008680555555555556,27.32638888888889,0)" xlink:href="#A"/><use transform="matrix(0.008680555555555556,0,0,0.008680555555555556,37.21354166666667,0)" xlink:href="#U"/><use transform="matrix(0.008680555555555556,0,0,0.008680555555555556,51.04166666666667,0)" xlink:href="#M"/><use transform="matrix(0.008680555555555556,0,0,0.008680555555555556,57.96006944444445,0)" xlink:href="#H"/><use transform="matrix(0.008680555555555556,0,0,0.008680555555555556,67.84722222222223,0)" xlink:href="#I"/><use transform="matrix(0.008680555555555556,0,0,0.008680555555555556,78.70659722222223,0)" xlink:href="#K"/><use transform="matrix(0.008680555555555556,0,0,0.008680555555555556,84.62673611111111,0)" xlink:href="#A"/><use transform="matrix(0.008680555555555556,0,0,0.008680555555555556,94.5138888888889,0)" xlink:href="#J"/></g><path d="M1061-1012c0-151-77-206-239-206H464v396h349c160 3 248-45 248-190zm268 754c1 128 0 172 64 221V0h-339c-35-101-34-212-35-343-7-190-48-235-237-235H464V0H163v-1474h723c259-2 384 90 456 265 84 205-15 457-200 505 142 61 185 142 187 347v99" id="V"/><path d="M595-210c174 0 249-146 249-336 0-175-85-329-248-321-168 7-239 140-239 335 0 186 71 322 238 322zm-72-908c172 0 250 68 320 192v-162h275V432H836v-567C785-38 678 37 515 34 243 29 60-219 60-520c0-320 175-598 463-598" id="W"/><path d="M498 24c-274-5-373-157-373-457v-657h292v657c-3 145 43 220 175 223 160 1 228-111 228-287v-593h289V0H832v-154C797-87 708-19 644 2c-42 15-90 22-146 22" id="X"/><g id="j"><use transform="matrix(0.008680555555555556,0,0,0.008680555555555556,0,0)" xlink:href="#T"/><use transform="matrix(0.008680555555555556,0,0,0.008680555555555556,10.546875,0)" xlink:href="#E"/><use transform="matrix(0.008680555555555556,0,0,0.008680555555555556,21.40625,0)" xlink:href="#K"/><use transform="matrix(0.008680555555555556,0,0,0.008680555555555556,27.32638888888889,0)" xlink:href="#A"/><use transform="matrix(0.008680555555555556,0,0,0.008680555555555556,37.21354166666667,0)" xlink:href="#V"/><use transform="matrix(0.008680555555555556,0,0,0.008680555555555556,50.05208333333334,0)" xlink:href="#A"/><use transform="matrix(0.008680555555555556,0,0,0.008680555555555556,59.93923611111112,0)" xlink:href="#W"/><use transform="matrix(0.008680555555555556,0,0,0.008680555555555556,70.79861111111111,0)" xlink:href="#X"/><use transform="matrix(0.008680555555555556,0,0,0.008680555555555556,81.65798611111111,0)" xlink:href="#A"/><use transform="matrix(0.008680555555555556,0,0,0.008680555555555556,91.5451388888889,0)" xlink:href="#N"/><use transform="matrix(0.008680555555555556,0,0,0.008680555555555556,101.43229166666666,0)" xlink:href="#K"/></g><path d="M884-545c-2-162-72-320-244-320-171 0-246 150-243 345 3 187 72 312 243 312 173 0 245-154 244-337zM398-929c65-107 171-185 324-185 127 0 236 47 324 141s132 232 132 414c0 192-44 338-130 439S851 31 715 31c-153-1-244-65-308-170v568H125v-1519h273v161" id="Y"/><path d="M1246-1213H466v313h716v256H466v379h816V0H165v-1474h1081v261" id="Z"/><path d="M89-558c7-385 157-677 348-940h215c-157 274-274 547-268 958 6 423 98 641 273 953H446C359 295 305 228 228 54 135-153 89-357 89-558" id="aa"/><path fill="#f6bc26" d="M125-1109h990v990H125v-990" id="ab"/><g id="l"><use transform="matrix(0.008680555555555556,0,0,0.008680555555555556,0,0)" xlink:href="#P"/><use transform="matrix(0.008680555555555556,0,0,0.008680555555555556,12.838541666666668,0)" xlink:href="#Y"/><use transform="matrix(0.008680555555555556,0,0,0.008680555555555556,23.697916666666668,0)" xlink:href="#Y"/><use transform="matrix(0.008680555555555556,0,0,0.008680555555555556,34.55729166666667,0)" xlink:href="#A"/><use transform="matrix(0.008680555555555556,0,0,0.008680555555555556,44.44444444444444,0)" xlink:href="#I"/><use transform="matrix(0.008680555555555556,0,0,0.008680555555555556,55.30381944444445,0)" xlink:href="#J"/><use transform="matrix(0.008680555555555556,0,0,0.008680555555555556,66.16319444444446,0)" xlink:href="#Z"/><use transform="matrix(0.008680555555555556,0,0,0.008680555555555556,78.02083333333334,0)" xlink:href="#I"/><use transform="matrix(0.008680555555555556,0,0,0.008680555555555556,88.88020833333334,0)" xlink:href="#K"/><use transform="matrix(0.008680555555555556,0,0,0.008680555555555556,94.80034722222223,0)" xlink:href="#M"/><use transform="matrix(0.008680555555555556,0,0,0.008680555555555556,101.71875,0)" xlink:href="#R"/><use transform="matrix(0.008680555555555556,0,0,0.008680555555555556,106.65798611111111,0)" xlink:href="#A"/><use transform="matrix(0.008680555555555556,0,0,0.008680555555555556,116.54513888888887,0)" xlink:href="#N"/><use transform="matrix(0.008680555555555556,0,0,0.008680555555555556,126.43229166666666,0)" xlink:href="#aa"/><use transform="matrix(0.008463541666666668,0,0,0.008463541666666668,132.35243055555554,0)" xlink:href="#ab"/></g><path fill="#0062cf" d="M125-1109h990v990H125v-990" id="ac"/><path d="M241-1498c192 264 340 554 348 940 0 201-46 405-139 612-77 174-130 241-218 359H21c176-313 267-529 273-953 6-412-110-683-268-958h215" id="ad"/><g id="m"><use transform="matrix(0.008463541666666668,0,0,0.008463541666666668,0,0)" xlink:href="#ac"/><use transform="matrix(0.008680555555555556,0,0,0.008680555555555556,10.444010416666668,0)" xlink:href="#ad"/></g><path d="M154 0v-1474h305v562h576v-562h306V0h-306v-658H459V0H154" id="ae"/><path d="M722-1114c297-4 458 250 458 555 0 311-154 592-455 588-174-5-245-52-323-166V0H123v-1472h284v524c73-100 153-164 315-166zm-73 908c160-1 232-151 232-323 0-190-72-336-240-336-171 0-246 141-243 335 3 175 76 327 251 324" id="af"/><g id="n"><use transform="matrix(0.008680555555555556,0,0,0.008680555555555556,0,0)" xlink:href="#ae"/><use transform="matrix(0.008680555555555556,0,0,0.008680555555555556,12.838541666666668,0)" xlink:href="#A"/><use transform="matrix(0.008680555555555556,0,0,0.008680555555555556,22.725694444444446,0)" xlink:href="#H"/><use transform="matrix(0.008680555555555556,0,0,0.008680555555555556,32.61284722222223,0)" xlink:href="#M"/><use transform="matrix(0.008680555555555556,0,0,0.008680555555555556,39.53125000000001,0)" xlink:href="#K"/><use transform="matrix(0.008680555555555556,0,0,0.008680555555555556,45.4513888888889,0)" xlink:href="#af"/><use transform="matrix(0.008680555555555556,0,0,0.008680555555555556,56.3107638888889,0)" xlink:href="#A"/><use transform="matrix(0.008680555555555556,0,0,0.008680555555555556,66.19791666666669,0)" xlink:href="#H"/><use transform="matrix(0.008680555555555556,0,0,0.008680555555555556,76.08506944444446,0)" xlink:href="#K"/></g><path d="M26 0l372-552-356-536h349l182 316 178-316h339L732-557 1104 0H749L561-327 372 0H26" id="ag"/><use transform="matrix(0.008680555555555556,0,0,0.008680555555555556,0,0)" xlink:href="#ag" id="o"/><path d="M415-358c114-51 193-137 273-222h74c-40 74-74 142-119 199h990v85H643c46 51 80 119 119 193h-74c-80-85-165-165-273-222v-34" id="ah"/><path d="M1012-1061c0 131-80 252-176 291 26 0 63 22 112 67 73 67 109 159 109 276 0 123-42 230-127 323S719 36 552 36C232 35 64-127 54-445h280c-2 154 72 251 217 249 119-1 214-91 209-223-7-176-119-222-324-218v-204c192-1 283-32 289-197 4-111-71-187-185-187-137 0-196 97-194 235H80c14-288 160-467 469-467 259 0 463 146 463 396" id="ai"/><g id="p"><use transform="matrix(0.008680555555555556,0,0,0.008680555555555556,0,0)" xlink:href="#ah"/><use transform="matrix(0.008680555555555556,0,0,0.008680555555555556,17.77777777777778,0)" xlink:href="#ai"/></g><path d="M142-1000v-194c178-9 242-14 329-94 33-32 62-102 67-162h237V0H483v-1000H142" id="aj"/><use transform="matrix(0.008680555555555556,0,0,0.008680555555555556,0,0)" xlink:href="#aj" id="q"/><path d="M552-1457c293 0 505 180 502 465 0 107-34 201-96 286-86 118-352 277-468 376-26 23-48 49-66 79h633V0H64c3-104 28-198 67-285 43-96 137-199 288-307 131-94 216-161 255-202 59-63 89-133 89-208 1-121-72-217-197-214-160 5-205 98-209 275H80c6-322 162-516 472-516" id="ak"/><g id="r"><use transform="matrix(0.008680555555555556,0,0,0.008680555555555556,0,0)" xlink:href="#ah"/><use transform="matrix(0.008680555555555556,0,0,0.008680555555555556,17.77777777777778,0)" xlink:href="#ak"/></g><path d="M307 441c-60 0-69 0-130-4V209c66 5 141 6 180-24 23-5 67-111 64-137L21-1090h317l238 804 225-804h303L730-18c-72 207-129 334-171 384s-126 75-252 75" id="al"/><use transform="matrix(0.008680555555555556,0,0,0.008680555555555556,0,0)" xlink:href="#al" id="s"/><path d="M1071-312H907V0H628v-312H54v-249l533-880h320v906h164v223zM628-535v-626L265-535h363" id="am"/><g id="t"><use transform="matrix(0.008680555555555556,0,0,0.008680555555555556,0,0)" xlink:href="#ah"/><use transform="matrix(0.008680555555555556,0,0,0.008680555555555556,17.77777777777778,0)" xlink:href="#am"/></g><g id="u"><use transform="matrix(0.008680555555555556,0,0,0.008680555555555556,0,0)" xlink:href="#ah"/><use transform="matrix(0.008680555555555556,0,0,0.008680555555555556,17.77777777777778,0)" xlink:href="#aj"/></g><use transform="matrix(0.008680555555555556,0,0,0.008680555555555556,0,0)" xlink:href="#ak" id="v"/><use transform="matrix(0.008680555555555556,0,0,0.008680555555555556,0,0)" xlink:href="#ai" id="w"/><path fill="#fff" d="M156-1472h1045v259H462v339h647v256H462V0H156v-1472" id="an"/><path fill="#fff" d="M622-201c183 0 261-144 259-342 1-198-76-341-259-341S360-741 362-543c-2 198 77 342 260 342zm420 69C948-20 810 38 623 38S298-20 204-132C22-348 22-734 204-952c95-113 232-173 419-173s324 60 419 173c182 218 182 604 0 820" id="ao"/><path fill="#fff" d="M424 0H139v-1474h285V0" id="ap"/><path fill="#fff" d="M647-1090h289l166 785 170-785h297L1253 0H960L789-794 616 0H320L14-1090h306l170 782" id="aq"/><path fill="#fff" d="M784-654c-5-137-89-228-221-230-142 0-204 100-222 230h443zM47-534c0-349 192-585 516-585 298 0 464 175 508 437 7 50 10 122 9 216H334c6 167 84 266 245 271 100 0 162-49 196-125h291c-7 65-41 130-101 197C872-17 741 36 573 36 434 36 312-9 206-98S47-333 47-534" id="ar"/><path fill="#fff" d="M402-900c88-148 154-220 361-214v292c-235-26-346 58-346 301V0H130v-1090h272v190" id="as"/><g id="x"><use transform="matrix(0.010850694444444444,0,0,0.010850694444444444,0,0)" xlink:href="#an"/><use transform="matrix(0.010850694444444444,0,0,0.010850694444444444,13.57421875,0)" xlink:href="#ao"/><use transform="matrix(0.010850694444444444,0,0,0.010850694444444444,27.1484375,0)" xlink:href="#ap"/><use transform="matrix(0.010850694444444444,0,0,0.010850694444444444,33.322482638888886,0)" xlink:href="#ap"/><use transform="matrix(0.010850694444444444,0,0,0.010850694444444444,39.49652777777777,0)" xlink:href="#ao"/><use transform="matrix(0.010850694444444444,0,0,0.010850694444444444,53.07074652777778,0)" xlink:href="#aq"/><use transform="matrix(0.010850694444444444,0,0,0.010850694444444444,70.35590277777777,0)" xlink:href="#ar"/><use transform="matrix(0.010850694444444444,0,0,0.010850694444444444,82.71484375,0)" xlink:href="#as"/></g><path fill="#fff" d="M92-725c0-447 241-773 665-777 248 0 429 81 544 244 63 91 97 183 102 275h-308c-42-165-134-253-326-256-112 0-196 48-265 135-123 156-128 610 6 756 72 79 155 123 260 123 191-3 284-106 325-277h305c-47 305-276 543-626 543C337 41 92-274 92-725" id="at"/><path fill="#fff" d="M484-173c144 0 256-81 250-251v-106c-112 84-389 25-389 219 0 91 57 138 139 138zM400 34C204 35 54-88 59-290c4-238 161-332 405-361 113-13 271-9 271-118 0-101-76-116-183-118-118 0-167 50-183 150H94c20-262 177-379 468-379 119 0 225 24 318 71s139 137 139 268c1 211-2 417 2 626 4 69 15 86 59 109V0H770c-17-43-21-75-26-128C666-45 554 36 400 34" id="au"/><path fill="#fff" d="M737-1116c238 0 384 122 384 382V0H829v-663c3-142-52-214-183-216-156-2-227 117-227 289V0H135v-1088h275v159c75-120 156-187 327-187" id="av"/><path fill="#fff" d="M535-1116c144 1 243 71 301 164v-520h289V0H848v-151C772-34 692 31 515 34 245 35 63-226 63-517c0-336 161-596 472-599zm62 910c170 2 248-148 247-323 0-195-72-331-245-338-174-7-241 155-242 329 0 183 66 331 240 332" id="aw"/><path fill="#fff" d="M426-1220H137v-263h289v263zm-289 130h289V0H137v-1090" id="ax"/><path fill="#fff" d="M576-201c18 0 39-1 56-2V10l-135 5c-210 0-324-31-324-221v-671H21v-203h152v-304h282v304h177v203H455v576c4 103 10 94 121 100" id="ay"/><g id="y"><use transform="matrix(0.010850694444444444,0,0,0.010850694444444444,0,0)" xlink:href="#at"/><use transform="matrix(0.010850694444444444,0,0,0.010850694444444444,16.048177083333332,0)" xlink:href="#au"/><use transform="matrix(0.010850694444444444,0,0,0.010850694444444444,28.407118055555554,0)" xlink:href="#av"/><use transform="matrix(0.010850694444444444,0,0,0.010850694444444444,41.98133680555556,0)" xlink:href="#aw"/><use transform="matrix(0.010850694444444444,0,0,0.010850694444444444,55.55555555555556,0)" xlink:href="#ax"/><use transform="matrix(0.010850694444444444,0,0,0.010850694444444444,61.72960069444444,0)" xlink:href="#aw"/><use transform="matrix(0.010850694444444444,0,0,0.010850694444444444,75.30381944444444,0)" xlink:href="#au"/><use transform="matrix(0.010850694444444444,0,0,0.010850694444444444,87.66276041666666,0)" xlink:href="#ay"/><use transform="matrix(0.010850694444444444,0,0,0.010850694444444444,95.06293402777777,0)" xlink:href="#ar"/></g><path fill="#fff" d="M156-1474h308v1209h730V0H156v-1474" id="az"/><g id="z"><use transform="matrix(0.010850694444444444,0,0,0.010850694444444444,0,0)" xlink:href="#az"/><use transform="matrix(0.010850694444444444,0,0,0.010850694444444444,13.57421875,0)" xlink:href="#ar"/><use transform="matrix(0.010850694444444444,0,0,0.010850694444444444,25.93315972222222,0)" xlink:href="#au"/><use transform="matrix(0.010850694444444444,0,0,0.010850694444444444,38.29210069444444,0)" xlink:href="#aw"/><use transform="matrix(0.010850694444444444,0,0,0.010850694444444444,51.86631944444444,0)" xlink:href="#ar"/><use transform="matrix(0.010850694444444444,0,0,0.010850694444444444,64.22526041666666,0)" xlink:href="#as"/></g></defs></g></svg>